Coordinates
version=1
nRows=9
nColumns=42
inDegrees=yes

Units are S.I. units (second, meters, Newtons, ...)
If the header above contains a line with 'inDegrees', this indicates whether rotational values are in degrees (yes) or radians (no).

endheader
time	pelvis_tilt	pelvis_list	pelvis_rotation	pelvis_tx	pelvis_ty	pelvis_tz	hip_flexion_r	hip_adduction_r	hip_rotation_r	knee_angle_r	knee_adduction_r	knee_angle_r_beta	ankle_angle_r	subtalar_angle_r	mtp_angle_r	hip_flexion_l	hip_adduction_l	hip_rotation_l	knee_angle_l	knee_adduction_l	knee_angle_l_beta	ankle_angle_l	subtalar_angle_l	mtp_angle_l	lumbar_extension	lumbar_bending	lumbar_rotation	arm_flex_r	arm_add_r	arm_rot_r	elbow_flex_r	pro_sup_r	wrist_flex_r	wrist_dev_r	arm_flex_l	arm_add_l	arm_rot_l	elbow_flex_l	pro_sup_l	wrist_flex_l	wrist_dev_l
      1.59000000	      1.56465488	      0.73340961	      0.21570214	     -0.41406990	      0.97812644	      0.20743310	      5.38356155	     -1.01778943	     -5.57028140	     17.39877590	      3.11675394	      0.30366593	     13.55484471	     13.68343479	     -7.52764183	     17.30816171	     -4.56951990	    -11.52071720	     55.81561462	     -3.57333834	      0.97416625	      5.26553574	      2.06362720	     -7.52764183	    -10.97817339	      3.79139587	      1.92452697	      0.81102057	    -13.00575071	      0.08845148	     29.64194525	     90.00000001	      0.00000000	      0.00000000	     -3.04569460	    -16.61858164	     20.61930184	     37.20037091	     90.00000001	      0.00000000	      0.00000000
      1.60000000	      1.58085079	      0.81968700	      0.01389832	     -0.40372427	      0.97873656	      0.20820111	      4.25526217	     -0.98833052	     -5.03826950	     16.52492984	      3.17425585	      0.28841443	     13.67065548	     13.24592783	     -7.52435349	     18.20686094	     -4.42228058	    -11.85944174	     54.20429451	     -3.51938193	      0.94604341	      5.73720393	      2.45382490	     -7.52435349	    -10.98608685	      3.54295273	      2.14104949	      1.01762749	    -13.59259184	      1.89378288	     31.00259619	     90.00000001	      0.00000000	      0.00000000	     -3.53614528	    -15.92339051	     18.67750878	     35.78414280	     90.00000001	      0.00000000	      0.00000000
      1.61000000	      1.55559091	      0.95664876	     -0.12889554	     -0.39341473	      0.97907725	      0.20892199	      3.22280374	     -1.06798711	     -4.92970647	     15.75004383	      3.18751009	      0.27489012	     13.94638164	     13.65316268	     -7.52392413	     19.06190688	     -4.17737484	    -12.00223028	     52.35803269	     -3.32231459	      0.91382006	      6.03855680	      2.29039296	     -7.52392413	    -10.94810034	      3.23278103	      2.26751114	      1.56019863	    -13.67334486	      1.96736456	     31.59549298	     90.00000001	      0.00000000	      0.00000000	     -4.22829993	    -15.93188080	     18.59932653	     35.39189911	     90.00000001	      0.00000000	      0.00000000
      1.62000000	      1.61585122	      1.06182158	     -0.33132861	     -0.38303943	      0.97929355	      0.20961446	      2.08172059	     -1.13815582	     -4.76147880	     14.96398403	      3.23179536	      0.26117079	     14.26813179	     14.06723497	     -7.52195199	     19.69408397	     -3.95720686	    -12.02279753	     50.27044367	     -2.98132775	      0.87738476	      6.10429952	      1.57785051	     -7.52195199	    -10.99573737	      2.95283352	      2.57838756	      1.74648501	    -14.11891951	      2.85185973	     32.94612864	     90.00000001	      0.00000000	      0.00000000	     -4.61092349	    -15.49331585	     17.39198176	     34.26933221	     90.00000001	      0.00000000	      0.00000000
      1.63000000	      1.64491053	      1.14410435	     -0.48680004	     -0.37265805	      0.97922984	      0.21027393	      0.95111735	     -1.20176695	     -4.69374266	     14.13592842	      3.28826297	      0.24671849	     14.59736791	     14.54219407	     -7.52144101	     20.29564993	     -3.74887025	    -12.21939083	     47.98359365	     -2.81001101	      0.83747170	      6.27050346	      1.34282777	     -7.52144101	    -11.00283421	      2.69367992	      2.75651563	      2.27019305	    -14.26671443	      3.00798625	     33.54365174	     90.00000001	      0.00000000	      0.00000000	     -5.26218584	    -15.46494208	     17.14646150	     33.93337502	     90.00000001	      0.00000000	      0.00000000
      1.64000000	      1.51204841	      1.08171137	     -0.61675397	     -0.36235064	      0.97872449	      0.21101652	      0.10122727	     -1.05123290	     -4.84227276	     13.52154710	      3.18532970	      0.23599552	     14.85719935	     14.82101915	     -7.52114846	     21.04234156	     -3.70273303	    -12.43316435	     45.59673023	     -2.70812789	      0.79581307	      6.36582423	      1.16945639	     -7.52114846	    -10.82186360	      2.57769414	      2.94757617	      2.76375036	    -14.39819871	      3.08522066	     34.12463018	     90.00000001	      0.00000000	      0.00000000	     -5.91023914	    -15.44723853	     17.00339311	     33.63174156	     90.00000001	      0.00000000	      0.00000000
      1.65000000	      1.63850979	      1.19619061	     -0.79129102	     -0.35190908	      0.97835216	      0.21147441	     -1.18463094	     -1.24362368	     -4.79852509	     12.60767868	      3.36937941	      0.22004550	     15.31250879	     15.66295363	     -7.51937065	     21.28665186	     -3.41055221	    -12.34161399	     42.86231095	     -2.30271579	      0.74808845	      6.09892014	      0.14639789	     -7.51937065	    -10.96329441	      2.29263867	      3.18008815	      2.81929948	    -14.99838468	      4.46409909	     35.79431013	     90.00000001	      0.00000000	      0.00000000	     -6.23470798	    -14.89276847	     15.08244124	     32.47529659	     90.00000001	      0.00000000	      0.00000000
      1.66000000	      1.63157722	      1.16414084	     -0.92765747	     -0.34149526	      0.97755362	      0.21203879	     -2.26253202	     -1.21593601	     -4.83370217	     11.83455921	      3.44104767	      0.20655202	     15.67378980	     16.15105587	     -7.51893116	     21.66990124	     -3.30027262	    -12.56886239	     40.07230142	     -2.19936912	      0.69939360	      6.06340957	      0.32840517	     -7.51893116	    -10.92870890	      2.15615374	      3.36118575	      3.32023180	    -15.16677714	      4.62673483	     36.32204592	     90.00000001	      0.00000000	      0.00000000	     -6.82814332	    -14.86431625	     14.80993822	     32.22226385	     90.00000001	      0.00000000	      0.00000000
      1.67000000	      1.69118901	      1.10025715	     -1.06125877	     -0.33102993	      0.97659080	      0.21258070	     -3.41241188	     -1.15726462	     -4.89896638	     11.07119768	      3.50024455	      0.19322885	     16.07735572	     16.72555810	     -7.51836836	     21.90052184	     -3.21441882	    -12.85492165	     37.16208626	     -2.14268660	      0.64860076	      5.99364754	      0.62278132	     -7.51836836	    -10.98276934	      2.04752744	      3.57266042	      3.71062158	    -15.43728680	      4.96239903	     37.13457652	     90.00000001	      0.00000000	      0.00000000	     -7.32062076	    -14.77080326	     14.33252820	     31.81126249	     90.00000001	      0.00000000	      0.00000000
